# WaveFront *.obj file (generated by CINEMA 4D)

mtllib ./Platonic.mtl

v 0 0.52573192119598 0.85065215826035
v 0 -0.52573192119598 0.85065215826035
v 0.85065215826035 0 0.52573192119598
v 0.85065215826035 0 -0.52573192119598
v 0 0.52573192119598 -0.85065215826035
v 0 -0.52573192119598 -0.85065215826035
v -0.85065215826035 0 -0.52573192119598
v -0.85065215826035 0 0.52573192119598
v 0.52573192119598 0.85065215826035 0
v -0.52573192119598 0.85065215826035 0
v -0.52573192119598 -0.85065215826035 0
v 0.52573192119598 -0.85065215826035 0
# 12 vertices

vn 0 0.93417233228683 0.35682213306427
vn 0 0 0
vn 0.57735025882721 0.57735025882721 0.57735025882721
vn 0.93417233228683 0.35682213306427 0
vn 0.57735025882721 0.57735025882721 -0.57735025882721
vn 0 0.93417233228683 -0.35682213306427
vn -0.57735025882721 0.57735025882721 -0.57735025882721
vn -0.93417233228683 0.35682213306427 0
vn -0.57735025882721 0.57735025882721 0.57735025882721
vn 0 -0.93417233228683 0.35682213306427
vn 0.57735025882721 -0.57735025882721 0.57735025882721
vn 0.93417233228683 -0.35682213306427 0
vn 0.57735025882721 -0.57735025882721 -0.57735025882721
vn 0 -0.93417233228683 -0.35682213306427
vn -0.57735025882721 -0.57735025882721 -0.57735025882721
vn -0.93417233228683 -0.35682213306427 0
vn -0.57735025882721 -0.57735025882721 0.57735025882721
vn -0.35682213306427 0 0.93417233228683
vn 0.35682213306427 0 0.93417233228683
vn 0.35682213306427 0 -0.93417233228683
vn -0.35682213306427 0 -0.93417233228683
# 21 normals

vt 0 1 0
vt 1 1 0
vt 0.5 0 0
# 3 texture coordinates

o Platonic
usemtl default
f 1/3/1 9/2/1 10/1/1
f 1/3/3 3/2/3 9/1/3
f 3/3/4 4/2/4 9/1/4
f 4/3/5 5/2/5 9/1/5
f 5/3/6 10/2/6 9/1/6
f 7/3/7 10/2/7 5/1/7
f 8/3/8 10/2/8 7/1/8
f 8/3/9 1/2/9 10/1/9
f 2/3/10 11/2/10 12/1/10
f 2/3/11 12/2/11 3/1/11
f 12/3/12 4/2/12 3/1/12
f 12/3/13 6/2/13 4/1/13
f 12/3/14 11/2/14 6/1/14
f 11/3/15 7/2/15 6/1/15
f 11/3/16 8/2/16 7/1/16
f 11/3/17 2/2/17 8/1/17
f 1/3/18 8/2/18 2/1/18
f 1/3/19 2/2/19 3/1/19
f 4/3/20 6/2/20 5/1/20
f 6/3/21 7/2/21 5/1/21

